<?xml version="1.0" encoding="UTF-8" standalone="no"?>
<!-- Created with Inkscape (http://www.inkscape.org/) -->

<svg
   width="200"
   height="200"
   id="svg2"
   version="1.1"
   sodipodi:docname="rdrop_hood.svg"
   inkscape:version="1.2.2 (b0a8486541, 2022-12-01)"
   xmlns:inkscape="http://www.inkscape.org/namespaces/inkscape"
   xmlns:sodipodi="http://sodipodi.sourceforge.net/DTD/sodipodi-0.dtd"
   xmlns="http://www.w3.org/2000/svg"
   xmlns:svg="http://www.w3.org/2000/svg"
   xmlns:rdf="http://www.w3.org/1999/02/22-rdf-syntax-ns#"
   xmlns:cc="http://creativecommons.org/ns#"
   xmlns:dc="http://purl.org/dc/elements/1.1/">
  <sodipodi:namedview
     id="namedview7"
     pagecolor="#ffffff"
     bordercolor="#666666"
     borderopacity="1.0"
     inkscape:showpageshadow="2"
     inkscape:pageopacity="0.0"
     inkscape:pagecheckerboard="0"
     inkscape:deskcolor="#d1d1d1"
     showgrid="false"
     inkscape:zoom="3.7688791"
     inkscape:cx="24.14511"
     inkscape:cy="58.770789"
     inkscape:window-width="1920"
     inkscape:window-height="1009"
     inkscape:window-x="0"
     inkscape:window-y="34"
     inkscape:window-maximized="1"
     inkscape:current-layer="svg2" />
  <defs
     id="defs4" />
  <metadata
     id="metadata7">
    <rdf:RDF>
      <cc:Work
         rdf:about="">
        <dc:format>image/svg+xml</dc:format>
        <dc:type
           rdf:resource="http://purl.org/dc/dcmitype/StillImage" />
      </cc:Work>
    </rdf:RDF>
  </metadata>
  <path
     id="path3064"
     style="fill:#808000;fill-opacity:1;stroke:none"
     d="M 100,5.5878906 C 68.689051,5.5876443 43.306394,30.970301 43.306641,62.28125 c 0.0078,16.335515 7.061514,31.873827 19.353515,42.63281 8.960724,7.73448 14.794009,18.41712 10.771485,34.6836 -1.727955,8.26069 -0.207297,17.19632 5.144531,24.5625 1.738722,2.39312 3.759295,4.40678 5.982422,6.14453 5.15625,3.82736 10.577255,5.48984 16.345706,6.34765 l -0.68164,12.36328 c 3.64576,0.17473 7.37844,-0.80401 10.57031,-3.12304 4.16965,-3.02945 6.52616,-7.52771 6.82031,-12.27149 1.49235,-0.73902 2.94142,-1.58287 4.33008,-2.59179 11.20588,-8.14154 15.27907,-22.38342 11.11719,-34.85938 -4.79734,-13.64987 -6.95248,-21.78702 2.66406,-29.87695 0.59248,-0.54267 1.55077,-1.3606 0.4481,-2.13447 L 90.527344,77.986328 C 81.488517,72.768222 78.391233,61.210681 83.609375,52.171875 88.828205,43.132586 100.38705,40.03606 109.42578,45.255859 l 2.90076,1.674683 2.90075,1.674682 2.90076,1.674683 2.90076,1.674682 2.90075,1.674683 2.90076,1.674683 2.90076,1.674682 2.90076,1.674683 2.90075,1.674683 2.90076,1.674682 2.90076,1.674683 2.90075,1.674683 2.90076,1.674682 2.90076,1.674683 2.90075,1.674682 c 2.755,1.524004 3.10586,1.128268 3.48487,-0.494658 0.56062,-3.201233 0.2708,-4.298311 0.27136,-7.600144 C 156.69361,30.970301 131.31095,5.5876437 100,5.5878906 Z m 4.00977,122.2773394 c 5.3661,0.13843 10.61104,2.6834 14.00976,7.36133 5.80138,7.98489 4.03095,19.1582 -3.95312,24.95899 -7.9841,5.80075 -19.159577,4.03175 -24.960941,-3.95313 -5.438115,-7.48492 -4.244657,-17.87237 2.507812,-23.9082 0.475999,-0.36684 0.946302,-0.68823 1.445313,-1.05078 2.994029,-2.1753 6.437192,-3.28671 9.876956,-3.4043 0.3583,-0.0122 0.71648,-0.0131 1.07422,-0.004 z"
     sodipodi:nodetypes="ccccscccscscccccccccccccccccccccccccscscsscc" />
  <g
     id="layer1-3"
     transform="rotate(-36,237.80955,531.21634)">
    <path
       id="path3064-6"
       style="fill:#808000;fill-opacity:1;stroke:none"
       d="m 109.16347,21.002385 c -6.95906,0.26766 -13.953082,1.78691 -20.661292,4.91264 -19.19689,8.95284 -30.581448,27.84701 -30.936114,47.68941 -1.35248,16.3153 2.630387,28.834795 -12.06173,46.014095 -6.25348,5.6674 -10.274807,13.7893 -10.274807,22.8944 0,2.9581 0.451378,5.775 1.228502,8.4876 1.921822,6.1272 5.330469,10.6582 9.493042,14.7428 l -7.817803,9.6032 c 2.8468,2.2843 6.441119,3.6864 10.386488,3.6864 5.154005,0 9.705536,-2.2548 12.731841,-5.9197 1.641722,0.2793 3.309231,0.4479 5.025717,0.4479 13.851264,0 25.518084,-9.1272 29.484234,-21.6668 3.54468,-14.7532 12.762202,-18.4334 20.214562,-22.8951 1.29824,-0.7384 -0.52951,-2.96 -4.91403,-12.2854 L 94.979768,82.203435 c -0.004,-0.011 -0.055,-0.025 -0.1115,-0.031 -4.17082,-8.944 -0.23302,-19.6166 8.711252,-23.7873 8.94419,-4.1714 19.50601,-0.2529 23.67673,8.7111 0.001,0.011 0.055,0.024 0.11151,0.031 l 21.33138,45.565695 C 164.42646,97.222135 169.61147,73.073135 159.75572,51.937235 150.37156,31.812625 130.04068,20.245495 109.1635,21.002005 Z M 64.490399,124.42093 c 0.600718,-0.017 1.170104,0 1.786915,0 9.868894,0 17.869234,8.0003 17.869234,17.8687 0,9.8699 -8.00034,17.8694 -17.869234,17.8694 -9.868884,0 -17.86924,-7.9995 -17.86924,-17.8694 0,-9.2519 7.071656,-16.9546 16.082325,-17.8687 z" />
  </g>
  <path
     id="path363"
     style="fill:#4d4d4d;stroke-width:4.19519"
     d="m -63.687026,25.10026 a 56.692913,56.692913 0 0 1 -56.692914,56.692919 56.692913,56.692913 0 0 1 -56.69291,-56.692919 56.692913,56.692913 0 0 1 56.69291,-56.692913 56.692913,56.692913 0 0 1 56.692914,56.692913 z" />
  <path
     id="path363-1"
     style="fill:#4d4d4d;stroke-width:4.19519"
     d="M 100,5.5878906 C 72.499796,5.6209592 48.989068,25.385319 44.230469,52.470703 c 7.090678,3.586849 6.781878,0.879144 7.353478,-0.96258 0.33152,-1.500444 0.729761,-2.973733 1.191304,-4.416843 0.461543,-1.443109 0.986389,-2.856038 1.571117,-4.23576 0.584728,-1.379722 1.22934,-2.726237 1.930416,-4.036518 0.701076,-1.310282 1.458616,-2.584331 2.269201,-3.819119 0.810585,-1.234789 1.674215,-2.430318 2.587471,-3.583561 0.913257,-1.153243 1.876139,-2.2642 2.885229,-3.329845 1.009089,-1.065644 2.064386,-2.085976 3.162471,-3.057969 1.098085,-0.971993 2.238958,-1.895647 3.419201,-2.767936 1.180242,-0.872289 2.399854,-1.693213 3.655415,-2.459745 1.255562,-0.766532 2.547074,-1.478672 3.871117,-2.133395 1.324043,-0.654722 2.680617,-1.252026 4.066304,-1.788886 1.385686,-0.53686 2.800485,-1.013276 4.240977,-1.42622 1.440492,-0.412945 2.906677,-0.762418 4.395136,-1.045395 1.488459,-0.282976 2.999193,-0.499456 4.528781,-0.646411 1.529589,-0.146956 3.078033,-0.224388 4.641913,-0.22927 27.47634,-4.3e-4 49.75043,22.273656 49.75,49.75 -0.0301,1.933759 -0.15138,4.103183 -0.40621,6.020314 l 6.51302,3.704002 c 1.54188,-1.819465 1.70641,-9.484311 1.73837,-12.674571 C 157.59543,28.020015 131.31098,5.5876437 100,5.5878906 Z"
     sodipodi:nodetypes="cccsssssssssssssscccccc" />
  <path
     id="path997"
     style="fill:#00ffff;fill-opacity:1;stroke-width:3.76194"
     d="m -18.206782,42.723118 a 20.787401,20.787399 0 0 1 -20.7874,20.787393 20.787401,20.787399 0 0 1 -20.787405,-20.787393 20.787401,20.787399 0 0 1 20.787405,-20.787407 20.787401,20.787399 0 0 1 20.7874,20.787407 z" />
  <path
     id="path3064-5"
     style="fill:#808000;fill-opacity:1;stroke:none"
     d="m -318.36168,-244.13907 c -31.31098,-2.4e-4 -56.69361,25.38238 -56.69336,56.69336 0.008,16.33553 7.0615,31.87382 19.35351,42.63281 8.96074,7.73449 14.79402,18.41711 10.77149,34.6836 -1.72796,8.2607 -0.2073,17.196324 5.14453,24.562504 1.73872,2.39313 3.75929,4.40678 5.98242,6.14453 5.15626,3.82737 10.57725,5.48984 16.34571,6.34765 l -0.68164,12.363279 c 3.64577,0.17473 7.37844,-0.80401 10.57031,-3.12304 4.16966,-3.02945 6.52616,-7.527709 6.82031,-12.271489 1.49235,-0.73902 2.94142,-1.58287 4.33008,-2.59179 11.20589,-8.14155 15.27908,-22.383414 11.11719,-34.859384 -4.79734,-13.64989 -6.95249,-21.78701 2.66406,-29.87695 13.26256,-10.76284 20.96588,-26.93148 20.96875,-44.01172 2.5e-4,-31.31098 -25.38238,-56.6936 -56.69336,-56.69336 z m 2.93555,122.28125 c 5.73292,-0.19599 11.45867,2.36762 15.08398,7.35742 5.80138,7.9849 4.03096,19.158204 -3.95312,24.958994 -7.9841,5.80076 -19.15957,4.03176 -24.96094,-3.95313 -5.43812,-7.484934 -4.24467,-17.872364 2.50781,-23.908204 0.476,-0.36684 0.9463,-0.68823 1.44531,-1.05078 2.99403,-2.1753 6.43719,-3.28671 9.87696,-3.4043 z"
     sodipodi:nodetypes="ccccscccscsccccsssscss" />
  <g
     id="layer1-3-3"
     transform="rotate(-36,-355.66157,1050.1453)">
    <path
       id="path3064-6-5"
       style="fill:#808000;fill-opacity:1;stroke:none"
       d="m 109.16347,21.002385 c -6.95906,0.26766 -13.953082,1.78691 -20.661292,4.91264 -19.19689,8.95284 -30.581448,27.84701 -30.936114,47.68941 -1.35248,16.3153 2.630387,28.834795 -12.06173,46.014095 -6.25348,5.6674 -10.274807,13.7893 -10.274807,22.8944 0,2.9581 0.451378,5.775 1.228502,8.4876 1.921822,6.1272 5.330469,10.6582 9.493042,14.7428 l -7.817803,9.6032 c 2.8468,2.2843 6.441119,3.6864 10.386488,3.6864 5.154005,0 9.705536,-2.2548 12.731841,-5.9197 1.641722,0.2793 3.309231,0.4479 5.025717,0.4479 13.851264,0 25.518084,-9.1272 29.484234,-21.6668 3.54468,-14.7532 12.762202,-18.4334 20.214562,-22.8951 1.29824,-0.7384 -0.52951,-2.96 -4.91403,-12.2854 L 94.979768,82.203435 c -0.004,-0.011 -0.055,-0.025 -0.1115,-0.031 -4.17082,-8.944 -0.23302,-19.6166 8.711252,-23.7873 8.94419,-4.1714 19.50601,-0.2529 23.67673,8.7111 0.001,0.011 0.055,0.024 0.11151,0.031 l 21.33138,45.565695 C 164.42646,97.222135 169.61147,73.073135 159.75572,51.937235 150.37156,31.812625 130.04068,20.245495 109.1635,21.002005 Z M 64.490399,124.42093 c 0.600718,-0.017 1.170104,0 1.786915,0 9.868894,0 17.869234,8.0003 17.869234,17.8687 0,9.8699 -8.00034,17.8694 -17.869234,17.8694 -9.868884,0 -17.86924,-7.9995 -17.86924,-17.8694 0,-9.2519 7.071656,-16.9546 16.082325,-17.8687 z" />
  </g>
  <path
     id="path363-6"
     style="fill:#4d4d4d;stroke-width:4.19519"
     d="m -497.9129,-212.61419 a 56.692913,56.692913 0 0 1 -56.69291,56.69292 56.692913,56.692913 0 0 1 -56.6929,-56.69292 56.692913,56.692913 0 0 1 56.6929,-56.69292 56.692913,56.692913 0 0 1 56.69291,56.69292 z" />
  <path
     id="path1078-2"
     style="fill:#ff0000;stroke-width:3.4337"
     d="m -308.93617,-204.47164 a 18.897638,18.897638 0 0 0 -25.81576,6.91731 18.897638,18.897638 0 0 0 6.91833,25.81404 l 72.48389,41.84868 18.8975,-32.73139 z" />
  <path
     id="path997-9"
     style="fill:#00ffff;fill-opacity:1;stroke-width:3.76194"
     d="m -436.56847,-207.00384 a 20.787401,20.787399 0 0 1 -20.7874,20.78739 20.787401,20.787399 0 0 1 -20.7874,-20.78739 20.787401,20.787399 0 0 1 20.7874,-20.78741 20.787401,20.787399 0 0 1 20.7874,20.78741 z" />
  <path
     style="fill:#ff0000;fill-opacity:1;stroke-width:3.77953"
     d="M 165.9562,73.767651 103.87545,36.545231"
     id="path15220" />
</svg>
