<?xml version="1.0" encoding="UTF-8" standalone="no"?>
<!-- Created with Inkscape (http://www.inkscape.org/) -->

<svg
   xmlns:dc="http://purl.org/dc/elements/1.1/"
   xmlns:cc="http://creativecommons.org/ns#"
   xmlns:rdf="http://www.w3.org/1999/02/22-rdf-syntax-ns#"
   xmlns:svg="http://www.w3.org/2000/svg"
   xmlns="http://www.w3.org/2000/svg"
   xmlns:sodipodi="http://sodipodi.sourceforge.net/DTD/sodipodi-0.dtd"
   xmlns:inkscape="http://www.inkscape.org/namespaces/inkscape"
   width="744.09448"
   height="1052.3622"
   id="svg2"
   version="1.1"
   inkscape:version="0.48.3.1 r9886"
   sodipodi:docname="rearDropout.svg">
  <sodipodi:namedview
     id="base"
     pagecolor="#ffffff"
     bordercolor="#666666"
     borderopacity="1.0"
     inkscape:pageopacity="0.0"
     inkscape:pageshadow="2"
     inkscape:zoom="0.35355339"
     inkscape:cx="805.88113"
     inkscape:cy="-61.678194"
     inkscape:document-units="mm"
     inkscape:current-layer="layer1"
     showgrid="false"
     showguides="true"
     inkscape:guide-bbox="true"
     inkscape:window-width="1317"
     inkscape:window-height="744"
     inkscape:window-x="49"
     inkscape:window-y="24"
     inkscape:window-maximized="1"
     units="mm"
     inkscape:showpageshadow="false"
     showborder="false" />
  <defs
     id="defs4" />
  <metadata
     id="metadata7">
    <rdf:RDF>
      <cc:Work
         rdf:about="">
        <dc:format>image/svg+xml</dc:format>
        <dc:type
           rdf:resource="http://purl.org/dc/dcmitype/StillImage" />
        <dc:title></dc:title>
      </cc:Work>
    </rdf:RDF>
  </metadata>
  <g
     id="layer1"
     inkscape:groupmode="layer"
     inkscape:label="Layer 1"
     transform="translate(0,-2.5390623e-6)">
    <path
       sodipodi:nodetypes="ssccscccscscccccccccssscssssc"
       inkscape:connector-curvature="0"
       id="path3064"
       d="m 15.796446,980.99285 c -6.9590634,0.26766 -13.9530788,1.78691 -20.6612944,4.91264 -19.1968866,8.95284 -30.5814436,27.84701 -30.9361096,47.68941 -1.35248,16.3153 2.630387,28.8348 -12.06173,46.0141 -6.25348,5.6674 -10.274807,13.7893 -10.274807,22.8944 0,2.9581 0.451378,5.775 1.228502,8.4876 1.921822,6.1272 5.330469,10.6582 9.493042,14.7428 l -7.817803,9.6032 c 2.8468,2.2843 6.441119,3.6864 10.386488,3.6864 5.154005,0 9.705536,-2.2548 12.731841,-5.9197 1.641722,0.2793 3.309231,0.4479 5.025717,0.4479 13.851265,0 25.5180858,-9.1272 29.4842343,-21.6668 3.5446829,-14.7532 12.7622047,-18.4334 20.2145627,-22.8951 1.29824,-0.7384 -0.529508,-2.96 -4.914031,-12.2854 L 1.6127469,1042.1939 c -0.00364,-0.011 -0.055036,-0.025 -0.1115033,-0.031 -4.1708216,-8.944 -0.2330136,-19.6166 8.7112524,-23.7873 8.944189,-4.1714 19.506013,-0.2529 23.67673,8.7111 10e-4,0.011 0.05503,0.024 0.111512,0.031 l 21.331379,45.5657 C 71.059438,1057.2126 76.244446,1033.0636 66.3887,1011.9277 57.004536,991.80309 36.673656,980.23596 15.796473,980.99247 z m -44.673069,103.41855 c 0.600718,-0.017 1.170104,0 1.786915,0 9.868893,0 17.8692349,8.0003 17.8692349,17.8687 0,9.8699 -8.0003419,17.8694 -17.8692349,17.8694 -9.868884,0 -17.86924,-7.9995 -17.86924,-17.8694 0,-9.2519 7.071656,-16.9546 16.082325,-17.8687 z"
       style="fill:#808000;fill-opacity:1;stroke:none" />
  </g>
</svg>
